M48
;Layer_Color=9474304
;FILE_FORMAT=4:4
METRIC,LZ
;TYPE=PLATED
T1F00S00C1.0500
T2F00S00C1.2000
T3F00S00C1.6000
T4F00S00C4.0000
%
T01
X0022735Y001868
Y002822
T02
X00083Y00162
Y00264
X00133Y00289
X00183Y00264
X002667
X003167Y00289
X003667Y00264
Y00162
X002667
X00183
T03
X0014605Y00069
X0019685
X0029845
X0034925
X0009525
T04
X004165Y0003375
X0003375Y000335
X000335Y0030625
X0041625Y003065
M30
